<svg width="48" height="48" viewBox="0 0 48 48" fill="none" xmlns="http://www.w3.org/2000/svg">
<rect width="48" height="48" rx="16" fill="#FFF3ED"/>
<g clip-path="url(#clip0_143_244)">
<path fill-rule="evenodd" clip-rule="evenodd" d="M21.4709 6.23376L26.9356 11.6984L26.9356 11.6984C27.2408 12.0035 27.2408 12.4982 26.9356 12.8034L26.9312 12.8077L21.4661 18.2728L21.4662 18.2728C21.1611 18.578 20.6663 18.578 20.3612 18.2728C20.2086 18.1203 20.1323 17.9203 20.1323 17.7204H20.1323V14.547C19.6793 14.7082 19.2385 14.8966 18.8122 15.1103C17.6748 15.6801 16.6476 16.4235 15.7672 17.304C14.6899 18.3812 13.8201 19.6727 13.224 21.112C12.6509 22.4957 12.3346 24.0089 12.3346 25.5917C12.3346 27.1744 12.6509 28.6877 13.224 30.0713C13.8201 31.5106 14.6899 32.8021 15.7672 33.8793C16.8444 34.9566 18.1359 35.8265 19.5752 36.4226C20.9588 36.9956 22.4721 37.3119 24.0548 37.3119C25.6375 37.3119 27.1508 36.9956 28.5345 36.4226C29.9738 35.8264 31.2652 34.9566 32.3425 33.8793C33.2794 32.9425 34.0587 31.8464 34.637 30.6349C35.0882 29.6897 35.4164 28.672 35.601 27.6024L40.2684 28.1379C40.0189 29.7414 39.5383 31.2666 38.8616 32.6781C38.0564 34.3575 36.9682 35.8828 35.6571 37.194C34.141 38.7101 32.3348 39.9297 30.3322 40.7593C28.4021 41.5588 26.2821 42 24.0548 42C21.8275 42 19.7076 41.5588 17.7775 40.7593C15.7748 39.9297 13.9687 38.7101 12.4526 37.194C10.9364 35.6778 9.71684 33.8717 8.88722 31.869C8.08776 29.9389 7.64648 27.819 7.64648 25.5917C7.64648 23.3644 8.08777 21.2444 8.88722 19.3144C9.71686 17.3117 10.9364 15.5056 12.4526 13.9894C13.7967 12.6452 15.3668 11.535 17.0979 10.7236C18.0623 10.2716 19.0775 9.91063 20.1323 9.65189V6.78136C20.1323 6.34985 20.4822 6 20.9137 6C21.1319 6 21.3292 6.0895 21.4709 6.23375L21.4709 6.23376Z" fill="#C78477"/>
<path d="M38.5781 18.0028L38.5781 18.0028L38.5837 18.0136C38.5909 18.0275 38.5977 18.0415 38.604 18.0556C39.0063 18.8224 39.3557 19.625 39.6473 20.4583C39.9393 21.293 40.1713 22.1546 40.3382 23.038L40.3402 23.0376C40.4203 23.4616 40.1414 23.8703 39.7174 23.9504C39.7009 23.9535 39.6843 23.956 39.6678 23.9581L36.4672 24.1107L36.4677 24.1133C36.0451 24.2005 35.6318 23.9286 35.5445 23.506C35.5386 23.4773 35.5344 23.4487 35.5317 23.4201C35.4462 22.9607 35.3301 22.513 35.1857 22.0794C35.0325 21.6193 34.8465 21.1725 34.6304 20.7419L34.6275 20.7434L34.6216 20.7314L34.6215 20.7314C34.4302 20.3446 34.5887 19.8759 34.9756 19.6847C34.9827 19.6811 34.99 19.6777 34.9972 19.6744L37.4992 17.6924L37.4976 17.6894C37.8718 17.4745 38.3494 17.6036 38.5643 17.9778C38.5691 17.9861 38.5737 17.9945 38.5781 18.0029L38.5781 18.0028Z" fill="#FFE5DA"/>
<path d="M32.6444 11.453L32.6446 11.4528C32.6604 11.4628 32.6757 11.4734 32.6905 11.4843C33.2133 11.822 33.7193 12.1877 34.2064 12.5794C34.7054 12.9806 35.1833 13.4089 35.6379 13.8619L35.64 13.8609C35.9457 14.1656 35.9465 14.6603 35.6419 14.966L35.6407 14.9671L33.3311 17.2157L33.332 17.2164C33.0437 17.5375 32.5497 17.5641 32.2286 17.2758C32.1987 17.249 32.1713 17.2204 32.1466 17.1902C32.1218 17.1642 32.1014 17.1429 32.0855 17.1265C32.0559 17.096 32.0833 17.1257 31.9835 17.0259C31.7515 16.7939 31.5131 16.5766 31.2691 16.375C31.0086 16.1597 30.7517 15.966 30.4996 15.7949L30.4982 15.797L30.4965 15.7958L30.496 15.7965L30.4904 15.7926L30.4903 15.7927C30.1328 15.5516 30.0383 15.0665 30.2789 14.7088L31.5362 11.7135L31.5346 11.7126C31.7503 11.3389 32.2282 11.2108 32.602 11.4266C32.6165 11.435 32.6306 11.4439 32.6444 11.453V11.453Z" fill="#FFE5DA"/>
<path d="M19.8913 23.2327C19.889 23.6272 19.834 23.9826 19.7262 24.2968C19.6185 24.6109 19.474 24.8976 19.2974 25.1567C19.1185 25.4181 18.9236 25.6658 18.7104 25.8997C18.4971 26.1359 18.2861 26.3698 18.0728 26.606C17.8596 26.8422 17.6646 27.0922 17.4858 27.3559C17.3092 27.6196 17.167 27.9109 17.0593 28.2319C16.9492 28.5506 16.8941 28.9106 16.8918 29.3142V30.4975H21.2672V29.1217H18.4054C18.3985 29.0873 18.3939 29.0528 18.3939 29.0184C18.3916 28.984 18.3916 28.9496 18.3916 28.9153C18.3939 28.6905 18.4512 28.4704 18.559 28.2571C18.6668 28.0439 18.8112 27.8306 18.9878 27.615C19.1667 27.3994 19.3639 27.177 19.5772 26.9454C19.7904 26.7138 20.006 26.4684 20.2193 26.2093C20.4325 25.9479 20.6297 25.6658 20.8063 25.3631C20.9852 25.0581 21.1297 24.7256 21.2374 24.3655C21.3452 24.0055 21.4025 23.6088 21.4049 23.1777C21.4049 22.6617 21.32 22.2237 21.1503 21.8637C20.9806 21.5037 20.7283 21.2308 20.3936 21.0405C20.0587 20.8524 19.6437 20.7584 19.1483 20.7561C18.653 20.7584 18.238 20.8524 17.9032 21.0405C17.5683 21.2308 17.3161 21.5037 17.1464 21.8637C16.9767 22.2237 16.8919 22.6617 16.8919 23.1777V24.1133H18.3228V23.0814C18.3251 22.7397 18.3962 22.4966 18.5338 22.3476C18.6737 22.2008 18.864 22.1274 19.1071 22.132C19.2676 22.1297 19.4075 22.1595 19.5245 22.2237C19.6414 22.2879 19.7308 22.4003 19.795 22.5608C19.8592 22.7214 19.8913 22.9461 19.8913 23.2327L19.8913 23.2327ZM21.9828 28.7501H24.8996V30.4975H26.3856V28.7501H27.1011V27.3742H26.3856V20.8662H24.7346L21.9828 27.3742V28.7501H21.9828ZM23.3724 27.3742L24.8996 23.7556V27.3742H23.3724ZM29.3026 26.3698H31.0225V30.4975H32.5635V20.8662H31.0225V24.9939H29.3026V20.8662H27.7891V30.4975H29.3026V26.3698Z" fill="#C31918"/>
</g>
<defs>
<clipPath id="clip0_143_244">
<rect width="48" height="48" fill="white"/>
</clipPath>
</defs>
</svg>
