<svg width="48" height="48" viewBox="0 0 48 48" fill="none" xmlns="http://www.w3.org/2000/svg">
<rect width="48" height="48" rx="16" fill="#FFF3ED"/>
<g clip-path="url(#clip0_143_201)">
<path d="M26.7767 36.8806C25.8675 38.8894 25.1214 40.5378 24.7058 41.5276C24.6339 41.7081 24.4925 41.8606 24.2992 41.9416C23.9173 42.1018 23.4777 41.9221 23.3175 41.5401L23.3177 41.5401C22.9031 40.5517 22.1547 38.898 21.2418 36.8811C19.7237 33.5269 17.7563 29.1802 16.1645 25.3497C15.9858 24.9198 15.7693 24.4184 15.5541 23.92C13.9224 20.141 12.3574 16.5166 14.2495 12.3124C15.0992 10.4242 16.482 8.82688 18.2065 7.71172C19.8811 6.62874 21.8737 6 24.0092 6C26.2704 6 28.3697 6.70384 30.1 7.90478C31.8784 9.13912 33.2647 10.8995 34.0337 12.961C35.5391 16.9966 33.8331 20.87 32.2288 24.5123C31.9751 25.0885 31.7236 25.6594 31.5538 26.0631C29.9969 29.7658 28.1905 33.7569 26.7767 36.8806L26.7767 36.8806Z" fill="#C78477"/>
<path d="M24.0092 8.44153C21.7288 8.44153 19.6645 9.36575 18.1702 10.86C16.6759 12.3543 15.7517 14.4187 15.7517 16.699C15.7517 18.9793 16.6759 21.0437 18.1702 22.538C19.6645 24.0323 21.7289 24.9565 24.0092 24.9565C26.2895 24.9565 28.3539 24.0323 29.8482 22.538C31.3425 21.0437 32.2667 18.9793 32.2667 16.699C32.2667 14.4187 31.3424 12.3543 29.8482 10.86C28.3539 9.36574 26.2895 8.44153 24.0092 8.44153Z" fill="#FFE5DA"/>
<path d="M24.0092 9.02748C22.9663 9.02748 21.9748 9.23358 21.0733 9.60701C20.1384 9.99423 19.2942 10.5646 18.5845 11.2743C17.8748 11.984 17.3044 12.8282 16.9172 13.7631C16.5438 14.6647 16.3377 15.6561 16.3377 16.699C16.3377 17.7419 16.5438 18.7334 16.9172 19.6349C17.3044 20.5698 17.8748 21.414 18.5845 22.1237C19.2942 22.8334 20.1384 23.4038 21.0733 23.791C21.9749 24.1644 22.9663 24.3705 24.0092 24.3705C25.0521 24.3705 26.0436 24.1644 26.9451 23.791C27.88 23.4038 28.7242 22.8334 29.4339 22.1237C30.1436 21.414 30.714 20.5698 31.1012 19.6349C31.4746 18.7334 31.6807 17.7419 31.6807 16.699C31.6807 15.6561 31.4746 14.6646 31.1012 13.7631C30.714 12.8282 30.1436 11.984 29.4339 11.2743C28.7242 10.5646 27.88 9.99423 26.9451 9.60701C26.0435 9.23358 25.0521 9.02748 24.0092 9.02748ZM20.6293 8.52669C21.6733 8.09427 22.8151 7.85559 24.0092 7.85559C25.2034 7.85559 26.3451 8.09427 27.3891 8.52669C28.4751 8.97647 29.4495 9.63287 30.2624 10.4458C31.0754 11.2587 31.7318 12.2332 32.1815 13.3191C32.614 14.3631 32.8526 15.5049 32.8526 16.699C32.8526 17.8932 32.614 19.0349 32.1815 20.0789C31.7318 21.1649 31.0754 22.1394 30.2624 22.9523C29.4496 23.7652 28.4751 24.4216 27.3891 24.8714C26.3451 25.3038 25.2033 25.5425 24.0092 25.5425C22.8151 25.5425 21.6733 25.3038 20.6293 24.8714C19.5433 24.4216 18.5688 23.7652 17.756 22.9523C16.943 22.1394 16.2866 21.1649 15.8369 20.0789C15.4044 19.0349 15.1658 17.8932 15.1658 16.699C15.1658 15.5049 15.4044 14.3631 15.8369 13.3191C16.2866 12.2332 16.943 11.2587 17.756 10.4458C18.5689 9.63287 19.5433 8.97647 20.6293 8.52669Z" fill="#FFE5DA"/>
<path fill-rule="evenodd" clip-rule="evenodd" d="M24.308 20.4153C24.2345 20.5024 24.1259 20.5735 24.035 20.6436C23.6682 20.8546 23.1913 20.8269 22.8504 20.5397C22.8325 20.5246 22.8171 20.5088 22.8002 20.4931L19.0326 17.3181C18.5993 16.9529 18.5426 16.2992 18.9074 15.8653C19.2724 15.4315 19.927 15.3746 20.3607 15.7401L23.393 18.2955L27.5137 13.4058C27.8789 12.9724 28.5327 12.9156 28.9665 13.2805C29.4004 13.6455 29.4572 14.3001 29.0917 14.7338C27.497 16.6262 25.9001 18.5261 24.308 20.4152L24.308 20.4153Z" fill="#C31918"/>
</g>
<defs>
<clipPath id="clip0_143_201">
<rect width="48" height="48" fill="white"/>
</clipPath>
</defs>
</svg>
