<svg width="48" height="48" viewBox="0 0 48 48" fill="none" xmlns="http://www.w3.org/2000/svg">
<rect width="48" height="48" rx="16" fill="#FFF3ED"/>
<g clip-path="url(#clip0_143_102)">
<path d="M32.626 32.7632C35.5182 32.7632 37.8628 31.4433 37.8628 29.8152C37.8628 28.1871 35.5182 26.8672 32.626 26.8672C29.7338 26.8672 27.3892 28.1871 27.3892 29.8152C27.3892 31.4433 29.7338 32.7632 32.626 32.7632Z" fill="#FFE5DA"/>
<path fill-rule="evenodd" clip-rule="evenodd" d="M32.8411 27.7835C32.8462 27.6966 32.9207 27.6303 33.0076 27.6354L33.0075 27.6358C33.127 27.6428 33.2428 27.6549 33.3547 27.6718C33.465 27.6886 33.5755 27.7106 33.6857 27.7376C33.6924 27.7387 33.6991 27.7404 33.7058 27.7425C33.7888 27.7684 33.835 27.8568 33.8091 27.9398L33.8088 27.9397L33.8058 27.9494L33.9152 27.9836L33.9155 27.9827C33.9169 27.9768 33.9188 27.9708 33.921 27.9649C33.9519 27.8836 34.0428 27.8427 34.1242 27.8735L34.124 27.8739C34.2314 27.9146 34.3382 27.961 34.4439 28.0128C34.547 28.0633 34.6459 28.1173 34.7403 28.1745C34.7464 28.1776 34.7523 28.1812 34.758 28.1851C34.8295 28.2347 34.8472 28.3329 34.7977 28.4043L34.7973 28.4041L34.7916 28.4123L34.886 28.4777C34.8892 28.4723 34.8928 28.4671 34.8968 28.4621C34.9505 28.3937 35.0496 28.3819 35.118 28.4356L35.1178 28.4358C35.2057 28.5049 35.2937 28.5811 35.3814 28.6641C35.4639 28.7422 35.5417 28.8225 35.6146 28.9048C35.62 28.91 35.6251 28.9157 35.6299 28.9218C35.6833 28.9904 35.6709 29.0894 35.6023 29.1428H35.6022L35.5951 29.1483L35.6653 29.2385L35.6682 29.2362C35.672 29.2331 35.6759 29.2301 35.68 29.2272C35.7516 29.1779 35.8497 29.196 35.8991 29.2677L35.8987 29.2679C35.9657 29.3653 36.0274 29.4642 36.0835 29.5642C36.1357 29.6574 36.1854 29.7566 36.2325 29.8614C36.2367 29.8687 36.2403 29.8764 36.2433 29.8844C36.2738 29.9659 36.2325 30.0567 36.1511 30.0872L36.1506 30.0867L36.1411 30.0903L36.1814 30.198C36.1874 30.1953 36.1936 30.1929 36.1999 30.191C36.2831 30.1654 36.3713 30.212 36.3969 30.2952L36.3965 30.2954C36.4306 30.4063 36.4598 30.5191 36.4837 30.6335C36.5068 30.7439 36.525 30.8554 36.5381 30.9679C36.5392 30.9741 36.5399 30.9803 36.5403 30.9867C36.5451 31.0735 36.4785 31.1478 36.3917 31.1526L36.3916 31.1523L36.3819 31.1528L36.3882 31.2674C36.3944 31.2666 36.4008 31.2663 36.4072 31.2663C36.4942 31.2666 36.5644 31.3374 36.5641 31.4244H36.5635C36.563 31.5427 36.5572 31.659 36.5462 31.7732C36.5353 31.887 36.5196 31.9982 36.4994 32.1067C36.4986 32.1136 36.4973 32.1205 36.4956 32.1274C36.4742 32.2117 36.3886 32.2628 36.3042 32.2414L36.3043 32.2412L36.2944 32.2387L36.2663 32.3497L36.2682 32.3502C36.2739 32.3513 36.2797 32.3528 36.2854 32.3546C36.3683 32.3809 36.4143 32.4695 36.388 32.5524H36.3879C36.3537 32.6602 36.3131 32.7694 36.2667 32.8793C36.2217 32.9856 36.1731 33.0877 36.1211 33.1853C36.1184 33.1912 36.1153 33.197 36.1118 33.2026C36.0663 33.2767 35.9693 33.2999 35.8952 33.2543L35.8867 33.249L35.8269 33.3463L35.8312 33.349C35.8352 33.3513 35.8391 33.3538 35.843 33.3565C35.9142 33.4064 35.9315 33.5046 35.8815 33.5758L35.881 33.5755C35.8128 33.6727 35.7418 33.7649 35.6683 33.8516C35.5961 33.9368 35.5197 34.0192 35.4394 34.0984C35.4347 34.1038 35.4296 34.1088 35.4241 34.1136C35.3586 34.1708 35.259 34.1639 35.2019 34.0983V34.0982L35.196 34.0914L35.1098 34.1664L35.1127 34.1697C35.1158 34.1731 35.1189 34.1767 35.1218 34.1804C35.175 34.2492 35.1623 34.3482 35.0934 34.4014L35.0931 34.401C34.9762 34.4914 34.8536 34.5752 34.726 34.6518C34.6015 34.7265 34.4733 34.7939 34.3422 34.8533C34.3367 34.8563 34.3309 34.8589 34.3249 34.8611C34.2436 34.892 34.1526 34.8511 34.1217 34.7698L34.1219 34.7693L34.1185 34.7601L34.0112 34.8009C34.0139 34.8068 34.0162 34.8129 34.0182 34.8193C34.0442 34.9023 33.998 34.9907 33.915 35.0166L33.9147 35.0165C33.7702 35.0617 33.6207 35.0987 33.4667 35.1268C33.3197 35.1537 33.1702 35.1721 33.0189 35.1814C33.0122 35.1823 33.0053 35.1827 32.9984 35.1827C32.9114 35.1827 32.8408 35.1122 32.8408 35.0252V35.016H32.7268L32.7268 35.0252C32.7268 35.0282 32.7267 35.0313 32.7265 35.0344C32.7214 35.1212 32.6469 35.1875 32.5601 35.1824L32.5601 35.1821C32.4406 35.1751 32.3248 35.163 32.2129 35.146C32.1026 35.1293 31.9922 35.1073 31.8819 35.0803C31.8752 35.0791 31.8685 35.0775 31.8619 35.0754C31.7788 35.0494 31.7326 34.9611 31.7585 34.878L31.7588 34.8781L31.7618 34.8684L31.6524 34.8342L31.6522 34.835C31.6507 34.841 31.6488 34.847 31.6466 34.8529C31.6157 34.9343 31.5248 34.9752 31.4434 34.9443L31.4436 34.944C31.3362 34.9032 31.2295 34.8568 31.1238 34.805C31.0207 34.7545 30.9218 34.7005 30.8273 34.6433C30.8213 34.6402 30.8154 34.6366 30.8097 34.6327C30.7382 34.5831 30.7204 34.485 30.7699 34.4135L30.7704 34.4138L30.776 34.4056L30.6817 34.3402C30.6784 34.3455 30.6748 34.3507 30.6708 34.3557C30.6171 34.4241 30.518 34.436 30.4497 34.3822L30.4498 34.3821C30.3619 34.3129 30.2739 34.2367 30.1863 34.1538C30.1038 34.0757 30.026 33.9953 29.9531 33.913C29.9476 33.9078 29.9425 33.9022 29.9378 33.896C29.8843 33.8274 29.8967 33.7284 29.9653 33.675L29.9655 33.675L29.9725 33.6696L29.9023 33.5794L29.8995 33.5816C29.8957 33.5847 29.8918 33.5878 29.8877 33.5906C29.816 33.6399 29.7179 33.6218 29.6686 33.5502L29.669 33.5499C29.6019 33.4525 29.5402 33.3537 29.4842 33.2537C29.4319 33.1604 29.3822 33.0613 29.3351 32.9564C29.3309 32.9492 29.3273 32.9415 29.3243 32.9334C29.2938 32.8519 29.3351 32.7612 29.4166 32.7307L29.4171 32.7311L29.4265 32.7276L29.3862 32.6199C29.3802 32.6226 29.3741 32.6249 29.3677 32.6268C29.2845 32.6525 29.1964 32.6058 29.1708 32.5227L29.1712 32.5225C29.137 32.4116 29.1078 32.2989 29.084 32.1846C29.0608 32.0741 29.0426 31.9625 29.0295 31.8499C29.0284 31.8438 29.0277 31.8375 29.0273 31.8312C29.0226 31.7443 29.0891 31.67 29.1759 31.6652L29.176 31.6656L29.1857 31.6651L29.1794 31.5505C29.1732 31.5512 29.1668 31.5516 29.1604 31.5516C29.0734 31.5512 29.0032 31.4804 29.0035 31.3934H29.0042C29.0046 31.2752 29.0105 31.1589 29.0214 31.0447C29.0323 30.9309 29.048 30.8196 29.0682 30.7112C29.069 30.7042 29.0703 30.6974 29.0721 30.6904C29.0934 30.6061 29.179 30.5551 29.2634 30.5764L29.2633 30.5766L29.2732 30.5791L29.3013 30.4681L29.2994 30.4676C29.2936 30.4665 29.2879 30.465 29.2822 30.4632C29.1993 30.4369 29.1534 30.3484 29.1797 30.2655H29.1797C29.214 30.1576 29.2545 30.0485 29.301 29.9385C29.3459 29.8323 29.3945 29.7302 29.4466 29.6326C29.4493 29.6267 29.4523 29.6209 29.4558 29.6152C29.5013 29.5411 29.5983 29.518 29.6724 29.5636L29.6809 29.5688L29.7407 29.4715L29.7365 29.4689C29.7324 29.4666 29.7285 29.4641 29.7247 29.4614C29.6534 29.4115 29.6362 29.3132 29.6861 29.242L29.6866 29.2424C29.7548 29.1451 29.8258 29.053 29.8993 28.9663C29.9715 28.8811 30.0479 28.7987 30.1282 28.7194C30.1329 28.7141 30.138 28.709 30.1435 28.7042C30.2091 28.6471 30.3086 28.6539 30.3657 28.7195L30.3657 28.7196L30.3717 28.7264L30.4578 28.6515L30.4549 28.6481C30.4518 28.6447 30.4487 28.6412 30.4459 28.6374C30.3927 28.5686 30.4053 28.4697 30.4742 28.4165L30.4745 28.4168C30.5914 28.3265 30.714 28.2427 30.8415 28.1661C30.9661 28.0913 31.0943 28.0239 31.2254 27.9645C31.231 27.9616 31.2367 27.959 31.2427 27.9567C31.324 27.9258 31.415 27.9667 31.4459 28.048L31.4457 28.0486L31.4491 28.0577L31.5564 28.0169C31.5538 28.0111 31.5514 28.005 31.5494 27.9986C31.5234 27.9156 31.5696 27.8272 31.6526 27.8012L31.653 27.8014C31.7974 27.7561 31.9468 27.7191 32.1008 27.691C32.2479 27.6641 32.3974 27.6458 32.5488 27.6364C32.5555 27.6355 32.5623 27.6351 32.5692 27.6351C32.6562 27.6351 32.7268 27.7056 32.7268 27.7926V27.8018H32.8408L32.8409 27.7926C32.8409 27.7896 32.8409 27.7865 32.8411 27.7835ZM32.7838 29.3652C33.3481 29.3652 33.8591 29.594 34.2289 29.9638C34.5987 30.3336 34.8275 30.8446 34.8275 31.4089C34.8275 31.9732 34.5987 32.4842 34.2289 32.854C33.8591 33.2238 33.3481 33.4526 32.7838 33.4526C32.2195 33.4526 31.7086 33.2238 31.3387 32.854C30.9689 32.4842 30.7401 31.9732 30.7401 31.4089C30.7401 30.8446 30.9689 30.3336 31.3387 29.9638C31.7086 29.594 32.2195 29.3652 32.7838 29.3652Z" fill="#C78477"/>
<path fill-rule="evenodd" clip-rule="evenodd" d="M32.7837 28.9551C33.4613 28.9551 34.0747 29.2298 34.5189 29.6738C34.9629 30.1179 35.2375 30.7314 35.2375 31.409C35.2375 32.0866 34.9629 32.7001 34.5189 33.1442C34.0747 33.5882 33.4613 33.8629 32.7837 33.8629C32.1061 33.8629 31.4926 33.5882 31.0485 33.1442C30.6044 32.7001 30.3298 32.0866 30.3298 31.409C30.3298 30.7314 30.6044 30.1179 31.0485 29.6738C31.4926 29.2298 32.1061 28.9551 32.7837 28.9551ZM32.7837 29.3653C33.348 29.3653 33.8589 29.5941 34.2288 29.9639C34.5986 30.3337 34.8273 30.8447 34.8273 31.409C34.8273 31.9733 34.5986 32.4842 34.2288 32.8541C33.8589 33.2239 33.348 33.4526 32.7837 33.4526C32.2193 33.4526 31.7084 33.2239 31.3385 32.8541C30.9687 32.4842 30.74 31.9733 30.74 31.409C30.74 30.8447 30.9687 30.3337 31.3385 29.9639C31.7084 29.5941 32.2193 29.3653 32.7837 29.3653Z" fill="#C78477"/>
<path fill-rule="evenodd" clip-rule="evenodd" d="M32.7837 29.9512C33.1862 29.9512 33.5506 30.1143 33.8144 30.3781C34.0782 30.6419 34.2413 31.0063 34.2413 31.4088C34.2413 31.8113 34.0782 32.1758 33.8144 32.4395C33.5506 32.7033 33.1862 32.8665 32.7837 32.8665C32.3812 32.8665 32.0167 32.7033 31.753 32.4395C31.4892 32.1758 31.326 31.8113 31.326 31.4088C31.326 31.0063 31.4892 30.6419 31.753 30.3781C32.0167 30.1143 32.3812 29.9512 32.7837 29.9512Z" fill="#C78477"/>
<path fill-rule="evenodd" clip-rule="evenodd" d="M33.1582 31.409C33.1582 31.3056 33.1163 31.212 33.0485 31.1442C32.9808 31.0765 32.8872 31.0345 32.7838 31.0345C32.6804 31.0345 32.5867 31.0765 32.519 31.1442C32.4512 31.212 32.4093 31.3056 32.4093 31.409C32.4093 31.5124 32.4512 31.606 32.519 31.6738C32.5867 31.7416 32.6804 31.7835 32.7838 31.7835C32.8872 31.7835 32.9808 31.7416 33.0485 31.6738C33.1163 31.606 33.1582 31.5124 33.1582 31.409Z" fill="#FFE5DA"/>
<path fill-rule="evenodd" clip-rule="evenodd" d="M32.7834 29.6758C32.8901 29.6758 32.995 29.6872 33.0967 29.7088C33.2002 29.7308 33.3002 29.7638 33.3955 29.8064L33.3447 29.9203L33.3958 29.8061C33.4475 29.8292 33.4758 29.883 33.4688 29.9364C33.4548 30.1935 33.3807 30.4246 33.2693 30.5929C33.1458 30.7794 32.9755 30.8933 32.7834 30.8933C32.5912 30.8933 32.4209 30.7794 32.2974 30.5929C32.1845 30.4224 32.11 30.1874 32.0974 29.9263H32.097C32.0943 29.8695 32.1299 29.8197 32.1811 29.802C32.2734 29.7615 32.3701 29.7301 32.47 29.7088C32.5717 29.6872 32.6766 29.6758 32.7834 29.6758ZM34.3903 30.8067C34.4308 30.8991 34.4623 30.9957 34.4835 31.0956C34.5051 31.1974 34.5165 31.3022 34.5165 31.409C34.5165 31.5157 34.5051 31.6206 34.4835 31.7224C34.4615 31.8258 34.4286 31.9258 34.3859 32.0212L34.272 31.9703L34.3863 32.0214C34.3632 32.0731 34.3093 32.1014 34.2559 32.0945C33.9988 32.0804 33.7677 32.0063 33.5994 31.8949C33.4129 31.7715 33.299 31.6011 33.299 31.409C33.299 31.2169 33.4129 31.0465 33.5994 30.923C33.7699 30.8101 34.0049 30.7357 34.266 30.723L34.266 30.7226C34.3228 30.7199 34.3726 30.7555 34.3903 30.8067H34.3903ZM31.1764 32.0112C31.1359 31.9189 31.1044 31.8222 31.0832 31.7224C31.0616 31.6206 31.0502 31.5157 31.0502 31.409C31.0502 31.3022 31.0616 31.1974 31.0832 31.0956C31.1052 30.9922 31.1382 30.8921 31.1808 30.7968L31.2947 30.8476L31.1804 30.7966C31.2035 30.7449 31.2574 30.7166 31.3108 30.7235C31.5679 30.7376 31.799 30.8116 31.9673 30.923C32.1538 31.0465 32.2677 31.2169 32.2677 31.409C32.2677 31.6011 32.1538 31.7715 31.9673 31.8949C31.7968 32.0078 31.5618 32.0823 31.3007 32.095L31.3007 32.0953C31.2439 32.0981 31.1941 32.0625 31.1764 32.0112ZM32.7834 31.0343C32.8868 31.0343 32.9805 31.0763 33.0483 31.1441C33.116 31.2119 33.158 31.3055 33.158 31.409C33.158 31.5124 33.116 31.6061 33.0483 31.6739C32.9805 31.7417 32.8868 31.7836 32.7834 31.7836C32.6799 31.7836 32.5863 31.7417 32.5185 31.6739C32.4507 31.6061 32.4087 31.5124 32.4087 31.409C32.4087 31.3055 32.4507 31.2119 32.5185 31.1441C32.5863 31.0763 32.6799 31.0343 32.7834 31.0343ZM33.3856 33.0159C33.2933 33.0565 33.1966 33.0879 33.0967 33.1091C32.995 33.1308 32.8901 33.1421 32.7834 33.1421C32.6766 33.1421 32.5718 33.1308 32.47 33.1091C32.3665 33.0871 32.2665 33.0542 32.1712 33.0116L32.222 32.8977L32.1709 33.0119C32.1192 32.9888 32.0909 32.9349 32.0979 32.8815C32.112 32.6245 32.186 32.3933 32.2974 32.225C32.4209 32.0386 32.5912 31.9246 32.7834 31.9246C32.9755 31.9246 33.1459 32.0386 33.2693 32.225C33.3822 32.3956 33.4567 32.6305 33.4694 32.8916L33.4697 32.8916C33.4725 32.9484 33.4368 32.9982 33.3856 33.0159V33.0159ZM34.2598 29.9326C33.8819 29.5548 33.3599 29.321 32.7834 29.321C32.2068 29.321 31.6848 29.5548 31.307 29.9326C30.9291 30.3104 30.6954 30.8324 30.6954 31.409C30.6954 31.9856 30.9291 32.5076 31.307 32.8854C31.6848 33.2632 32.2068 33.4969 32.7834 33.4969C33.3599 33.4969 33.8819 33.2632 34.2598 32.8854C34.6376 32.5076 34.8713 31.9856 34.8713 31.409C34.8713 30.8324 34.6376 30.3104 34.2598 29.9326Z" fill="#FFE5DA"/>
<path d="M12.2427 32.7633C15.1349 32.7633 17.4795 31.4435 17.4795 29.8153C17.4795 28.1872 15.1349 26.8673 12.2427 26.8673C9.35047 26.8673 7.00586 28.1872 7.00586 29.8153C7.00586 31.4435 9.35047 32.7633 12.2427 32.7633Z" fill="#FFE5DA"/>
<path fill-rule="evenodd" clip-rule="evenodd" d="M12.4579 27.7836C12.4629 27.6967 12.5375 27.6304 12.6243 27.6355L12.6243 27.6359C12.7438 27.6429 12.8595 27.655 12.9715 27.672C13.0818 27.6887 13.1922 27.7107 13.3025 27.7377C13.3092 27.7389 13.3159 27.7405 13.3225 27.7426C13.4055 27.7685 13.4518 27.8569 13.4259 27.94L13.4256 27.9398L13.4225 27.9495L13.5319 27.9837L13.5322 27.9829C13.5337 27.9769 13.5356 27.971 13.5378 27.965C13.5686 27.8837 13.6596 27.8428 13.7409 27.8737L13.7408 27.874C13.8482 27.9147 13.9549 27.9612 14.0606 28.0129C14.1638 28.0634 14.2627 28.1174 14.3571 28.1746C14.3631 28.1778 14.369 28.1813 14.3747 28.1853C14.4462 28.2348 14.464 28.333 14.4144 28.4045L14.414 28.4042L14.4084 28.4124L14.5027 28.4778C14.506 28.4725 14.5096 28.4673 14.5135 28.4622C14.5673 28.3938 14.6663 28.382 14.7347 28.4357L14.7346 28.4359C14.8225 28.505 14.9105 28.5812 14.9981 28.6642C15.0806 28.7423 15.1584 28.8226 15.2313 28.9049C15.2367 28.9101 15.2419 28.9158 15.2466 28.9219C15.3 28.9905 15.2877 29.0895 15.2191 29.1429H15.2189L15.2119 29.1484L15.2821 29.2386L15.285 29.2363C15.2887 29.2332 15.2927 29.2302 15.2968 29.2274C15.3684 29.178 15.4665 29.1961 15.5158 29.2678L15.5154 29.2681C15.5825 29.3655 15.6442 29.4643 15.7002 29.5643C15.7525 29.6576 15.8022 29.7567 15.8493 29.8616C15.8534 29.8688 15.8571 29.8765 15.8601 29.8846C15.8906 29.966 15.8493 30.0568 15.7678 30.0873L15.7673 30.0869L15.7579 30.0904L15.7982 30.1981C15.8041 30.1954 15.8103 30.1931 15.8167 30.1911C15.8999 30.1655 15.988 30.2122 16.0136 30.2953L16.0132 30.2955C16.0474 30.4064 16.0766 30.5192 16.1005 30.6336C16.1235 30.744 16.1417 30.8556 16.1549 30.9681C16.1559 30.9742 16.1567 30.9804 16.157 30.9868C16.1618 31.0736 16.0953 31.1479 16.0084 31.1527L16.0084 31.1524L15.9987 31.1529L16.005 31.2675C16.0112 31.2668 16.0175 31.2664 16.0239 31.2664C16.1109 31.2668 16.1812 31.3376 16.1808 31.4245H16.1802C16.1798 31.5428 16.1739 31.6591 16.163 31.7733C16.1521 31.8871 16.1364 31.9984 16.1162 32.1068C16.1153 32.1137 16.1141 32.1206 16.1124 32.1275C16.091 32.2119 16.0053 32.2629 15.921 32.2416L15.921 32.2413L15.9112 32.2388L15.8831 32.3498L15.885 32.3503C15.8907 32.3515 15.8965 32.3529 15.9022 32.3547C15.9851 32.381 16.031 32.4696 16.0047 32.5525H16.0046C15.9704 32.6604 15.9299 32.7695 15.8834 32.8794C15.8385 32.9857 15.7899 33.0878 15.7378 33.1854C15.7352 33.1913 15.7321 33.1971 15.7286 33.2027C15.6831 33.2768 15.586 33.3 15.512 33.2544L15.5035 33.2492L15.4437 33.3465L15.448 33.3491C15.452 33.3514 15.4559 33.3539 15.4597 33.3566C15.531 33.4065 15.5482 33.5047 15.4983 33.576L15.4978 33.5756C15.4296 33.6728 15.3586 33.765 15.2851 33.8517C15.2128 33.9369 15.1364 34.0193 15.0561 34.0986C15.0515 34.1039 15.0464 34.109 15.0409 34.1138C14.9753 34.1709 14.8758 34.164 14.8187 34.0984V34.0984L14.8127 34.0915L14.7266 34.1665L14.7295 34.1698C14.7326 34.1732 14.7356 34.1768 14.7385 34.1805C14.7917 34.2494 14.779 34.3483 14.7102 34.4015L14.7099 34.4011C14.593 34.4915 14.4704 34.5753 14.3428 34.6519C14.2182 34.7267 14.0901 34.7941 13.9589 34.8535C13.9534 34.8564 13.9477 34.859 13.9417 34.8613C13.8604 34.8921 13.7694 34.8513 13.7385 34.7699L13.7387 34.7694L13.7352 34.7602L13.6279 34.801C13.6306 34.8069 13.633 34.813 13.635 34.8194C13.661 34.9024 13.6147 34.9908 13.5317 35.0168L13.5314 35.0166C13.387 35.0618 13.2375 35.0988 13.0834 35.127C12.9364 35.1538 12.787 35.1722 12.6356 35.1815C12.6289 35.1824 12.6221 35.1828 12.6151 35.1828C12.5281 35.1828 12.4576 35.1123 12.4576 35.0253V35.0162H12.3435L12.3435 35.0253C12.3435 35.0284 12.3434 35.0314 12.3433 35.0345C12.3382 35.1214 12.2637 35.1877 12.1768 35.1826L12.1769 35.1822C12.0574 35.1752 11.9416 35.1631 11.8297 35.1461C11.7194 35.1294 11.6089 35.1074 11.4987 35.0804C11.492 35.0792 11.4853 35.0776 11.4786 35.0755C11.3956 35.0495 11.3493 34.9612 11.3753 34.8781L11.3756 34.8782L11.3786 34.8686L11.2692 34.8343L11.269 34.8351C11.2675 34.8411 11.2656 34.8471 11.2633 34.8531C11.2325 34.9344 11.1415 34.9753 11.0602 34.9444L11.0603 34.9441C10.953 34.9034 10.8462 34.8569 10.7406 34.8052C10.6374 34.7546 10.5385 34.7007 10.4441 34.6434C10.438 34.6403 10.4321 34.6367 10.4264 34.6328C10.3549 34.5832 10.3371 34.4851 10.3867 34.4136L10.3871 34.4139L10.3928 34.4057L10.2984 34.3403C10.2952 34.3456 10.2916 34.3508 10.2876 34.3559C10.2338 34.4242 10.1348 34.4361 10.0664 34.3823L10.0666 34.3822C9.97863 34.3131 9.89069 34.2369 9.80305 34.1539C9.72056 34.0758 9.64271 33.9955 9.56983 33.9132C9.5644 33.9079 9.55931 33.9023 9.55455 33.8962C9.50109 33.8275 9.51344 33.7286 9.58206 33.6751L9.58223 33.6752L9.58926 33.6697L9.51908 33.5795L9.51626 33.5817C9.5125 33.5848 9.50854 33.5879 9.50441 33.5907C9.43274 33.64 9.33467 33.6219 9.28534 33.5503L9.28572 33.55C9.21868 33.4526 9.157 33.3538 9.10095 33.2538C9.04871 33.1605 8.99894 33.0614 8.95185 32.9565C8.9477 32.9493 8.94407 32.9416 8.94105 32.9335C8.91055 32.8521 8.95185 32.7613 9.03332 32.7308L9.03382 32.7312L9.04326 32.7277L9.00295 32.62C8.997 32.6227 8.99083 32.625 8.98443 32.627C8.9013 32.6526 8.81314 32.606 8.78753 32.5228L8.78792 32.5226C8.75378 32.4118 8.72461 32.299 8.70072 32.1847C8.6776 32.0742 8.65939 31.9626 8.64627 31.85C8.64519 31.8439 8.64447 31.8376 8.64411 31.8313C8.63932 31.7444 8.70584 31.6701 8.79271 31.6654L8.79276 31.6657L8.80248 31.6652L8.79614 31.5506C8.78994 31.5513 8.7836 31.5517 8.7772 31.5517C8.6902 31.5513 8.61994 31.4805 8.6203 31.3935H8.62091C8.62138 31.2753 8.62722 31.159 8.63816 31.0448C8.64904 30.931 8.66473 30.8197 8.685 30.7113C8.6858 30.7044 8.68704 30.6975 8.68882 30.6906C8.71013 30.6062 8.79581 30.5552 8.88015 30.5765L8.8801 30.5768L8.88995 30.5792L8.91805 30.4682L8.91611 30.4677C8.91041 30.4666 8.90465 30.4651 8.89895 30.4633C8.81604 30.437 8.77015 30.3485 8.79644 30.2656H8.7965C8.83071 30.1577 8.87124 30.0486 8.91772 29.9387C8.96265 29.8324 9.01128 29.7303 9.06333 29.6327C9.06601 29.6268 9.06908 29.621 9.07254 29.6154C9.11811 29.5412 9.21511 29.5181 9.28918 29.5637L9.29766 29.5689L9.35748 29.4716L9.35321 29.469C9.3492 29.4667 9.34527 29.4642 9.34142 29.4615C9.27019 29.4116 9.25292 29.3134 9.30283 29.2421L9.30339 29.2425C9.37154 29.1453 9.44254 29.0531 9.51607 28.9664C9.58829 28.8812 9.66469 28.7988 9.745 28.7196C9.74968 28.7142 9.75474 28.7091 9.76025 28.7043C9.82586 28.6472 9.92535 28.6541 9.98248 28.7196L9.98245 28.7197L9.98843 28.7266L10.0746 28.6516L10.0717 28.6483C10.0685 28.6448 10.0655 28.6413 10.0626 28.6376C10.0094 28.5687 10.0221 28.4698 10.0909 28.4166L10.0913 28.4169C10.2082 28.3266 10.3308 28.2428 10.4583 28.1662C10.5829 28.0914 10.711 28.024 10.8422 27.9646C10.8477 27.9617 10.8535 27.9591 10.8594 27.9568C10.9408 27.9259 11.0317 27.9668 11.0626 28.0482L11.0624 28.0487L11.0659 28.0578L11.1732 28.0171C11.1705 28.0112 11.1682 28.0051 11.1662 27.9987C11.1402 27.9157 11.1864 27.8273 11.2694 27.8013L11.2697 27.8015C11.4141 27.7563 11.5636 27.7193 11.7175 27.6911C11.8646 27.6643 12.0141 27.6459 12.1655 27.6366C12.1722 27.6357 12.1791 27.6353 12.186 27.6353C12.273 27.6353 12.3435 27.7058 12.3435 27.7928V27.8019H12.4576L12.4576 27.7928C12.4576 27.7897 12.4577 27.7866 12.4579 27.7836ZM12.4006 29.3654C12.9649 29.3654 13.4758 29.5941 13.8457 29.964C14.2155 30.3338 14.4442 30.8447 14.4442 31.409C14.4442 31.9734 14.2155 32.4843 13.8457 32.8541C13.4758 33.224 12.9649 33.4527 12.4006 33.4527C11.8362 33.4527 11.3253 33.224 10.9555 32.8541C10.5856 32.4843 10.3569 31.9734 10.3569 31.409C10.3569 30.8447 10.5856 30.3338 10.9555 29.964C11.3253 29.5941 11.8362 29.3654 12.4006 29.3654Z" fill="#C78477"/>
<path fill-rule="evenodd" clip-rule="evenodd" d="M12.4008 28.9553C13.0784 28.9553 13.6919 29.23 14.136 29.6741C14.58 30.1181 14.8547 30.7316 14.8547 31.4092C14.8547 32.0868 14.58 32.7003 14.136 33.1444C13.6919 33.5885 13.0784 33.8631 12.4008 33.8631C11.7232 33.8631 11.1097 33.5885 10.6656 33.1444C10.2216 32.7003 9.9469 32.0868 9.9469 31.4092C9.9469 30.7316 10.2216 30.1181 10.6656 29.6741C11.1097 29.23 11.7232 28.9553 12.4008 28.9553ZM12.4008 29.3655C12.9651 29.3655 13.476 29.5943 13.8459 29.9641C14.2157 30.3339 14.4444 30.8449 14.4444 31.4092C14.4444 31.9736 14.2157 32.4845 13.8459 32.8543C13.476 33.2242 12.9651 33.4529 12.4008 33.4529C11.8365 33.4529 11.3255 33.2242 10.9557 32.8543C10.5859 32.4845 10.3571 31.9736 10.3571 31.4092C10.3571 30.8449 10.5859 30.3339 10.9557 29.9641C11.3255 29.5943 11.8365 29.3655 12.4008 29.3655Z" fill="#C78477"/>
<path fill-rule="evenodd" clip-rule="evenodd" d="M12.4006 29.9513C12.8031 29.9513 13.1675 30.1145 13.4313 30.3782C13.6951 30.642 13.8582 31.0064 13.8582 31.409C13.8582 31.8114 13.6951 32.1759 13.4313 32.4397C13.1675 32.7034 12.8031 32.8666 12.4006 32.8666C11.9981 32.8666 11.6336 32.7034 11.3698 32.4397C11.1061 32.1759 10.9429 31.8114 10.9429 31.409C10.9429 31.0064 11.1061 30.642 11.3698 30.3782C11.6336 30.1145 11.9981 29.9513 12.4006 29.9513Z" fill="#C78477"/>
<path fill-rule="evenodd" clip-rule="evenodd" d="M12.775 31.4091C12.775 31.3057 12.7331 31.2121 12.6654 31.1443C12.5976 31.0766 12.504 31.0347 12.4006 31.0347C12.2972 31.0347 12.2036 31.0766 12.1358 31.1443C12.068 31.2121 12.0261 31.3057 12.0261 31.4091C12.0261 31.5125 12.068 31.6061 12.1358 31.6739C12.2036 31.7417 12.2972 31.7836 12.4006 31.7836C12.504 31.7836 12.5976 31.7417 12.6654 31.6739C12.7331 31.6061 12.775 31.5125 12.775 31.4091Z" fill="#FFE5DA"/>
<path fill-rule="evenodd" clip-rule="evenodd" d="M12.4008 29.6758C12.5076 29.6758 12.6124 29.6872 12.7142 29.7088C12.8177 29.7308 12.9177 29.7638 13.013 29.8064L12.9622 29.9203L13.0133 29.8061C13.065 29.8292 13.0933 29.883 13.0863 29.9364C13.0722 30.1935 12.9982 30.4246 12.8868 30.5929C12.7633 30.7794 12.593 30.8933 12.4008 30.8933C12.2087 30.8933 12.0384 30.7794 11.9149 30.5929C11.802 30.4224 11.7275 30.1874 11.7149 29.9263H11.7145C11.7118 29.8695 11.7474 29.8197 11.7986 29.802C11.8909 29.7615 11.9876 29.7301 12.0875 29.7088C12.1892 29.6872 12.2941 29.6758 12.4008 29.6758ZM14.0078 30.8067C14.0483 30.8991 14.0798 30.9957 14.101 31.0956C14.1226 31.1974 14.134 31.3022 14.134 31.409C14.134 31.5157 14.1226 31.6206 14.101 31.7224C14.079 31.8258 14.046 31.9258 14.0034 32.0212L13.8895 31.9703L14.0038 32.0214C13.9807 32.0731 13.9268 32.1014 13.8734 32.0945C13.6163 32.0804 13.3852 32.0063 13.2169 31.8949C13.0304 31.7715 12.9165 31.6011 12.9165 31.409C12.9165 31.2169 13.0304 31.0465 13.2169 30.923C13.3874 30.8101 13.6224 30.7357 13.8835 30.723L13.8835 30.7226C13.9403 30.7199 13.9901 30.7555 14.0078 30.8067H14.0078ZM10.7939 32.0112C10.7534 31.9189 10.7219 31.8222 10.7007 31.7224C10.6791 31.6206 10.6677 31.5157 10.6677 31.409C10.6677 31.3022 10.6791 31.1974 10.7007 31.0956C10.7227 30.9922 10.7557 30.8921 10.7983 30.7968L10.9122 30.8476L10.7979 30.7966C10.821 30.7449 10.8749 30.7166 10.9283 30.7235C11.1854 30.7376 11.4165 30.8116 11.5848 30.923C11.7713 31.0465 11.8852 31.2169 11.8852 31.409C11.8852 31.6011 11.7713 31.7715 11.5848 31.8949C11.4143 32.0078 11.1793 32.0823 10.9182 32.095L10.9182 32.0953C10.8614 32.0981 10.8116 32.0625 10.7939 32.0112ZM12.4009 31.0343C12.5043 31.0343 12.5979 31.0763 12.6657 31.1441C12.7335 31.2119 12.7755 31.3055 12.7755 31.409C12.7755 31.5124 12.7335 31.6061 12.6657 31.6739C12.5979 31.7417 12.5043 31.7836 12.4009 31.7836C12.2974 31.7836 12.2038 31.7417 12.136 31.6739C12.0682 31.6061 12.0262 31.5124 12.0262 31.409C12.0262 31.3055 12.0682 31.2119 12.136 31.1441C12.2038 31.0763 12.2974 31.0343 12.4009 31.0343ZM13.0031 33.0159C12.9108 33.0565 12.8141 33.0879 12.7142 33.1091C12.6125 33.1308 12.5076 33.1421 12.4009 33.1421C12.2941 33.1421 12.1893 33.1308 12.0875 33.1091C11.984 33.0871 11.884 33.0542 11.7887 33.0116L11.8395 32.8977L11.7884 33.0119C11.7367 32.9888 11.7084 32.9349 11.7154 32.8815C11.7295 32.6245 11.8035 32.3933 11.9149 32.225C12.0384 32.0386 12.2087 31.9246 12.4009 31.9246C12.593 31.9246 12.7633 32.0386 12.8868 32.225C12.9997 32.3956 13.0742 32.6305 13.0868 32.8916L13.0872 32.8916C13.0899 32.9484 13.0543 32.9982 13.0031 33.0159V33.0159ZM13.8773 29.9326C13.4994 29.5548 12.9774 29.321 12.4009 29.321C11.8243 29.321 11.3023 29.5548 10.9245 29.9326C10.5466 30.3104 10.3129 30.8324 10.3129 31.409C10.3129 31.9856 10.5466 32.5076 10.9245 32.8854C11.3023 33.2632 11.8243 33.4969 12.4009 33.4969C12.9774 33.4969 13.4994 33.2632 13.8773 32.8854C14.2551 32.5076 14.4888 31.9856 14.4888 31.409C14.4888 30.8324 14.2551 30.3104 13.8773 29.9326Z" fill="#FFE5DA"/>
<path d="M19.2109 14.7209H16.0615V18.5295H19.2109V14.7209Z" fill="#C31918"/>
<path d="M14.076 19.3353L18.3059 19.3245C18.7201 19.3245 19.0559 19.6603 19.0559 20.0745V31.4682H19.0554C19.0415 31.0662 18.7113 30.7445 18.3059 30.7445H18.1084C18.1713 30.7274 18.2375 30.7182 18.3059 30.7182C18.7201 30.7182 19.0559 31.054 19.0559 31.4682V31.4945V31.4946V31.4946C19.0559 31.9088 18.7201 32.2446 18.3059 32.2446H16.6472C16.69 31.9989 16.7119 31.748 16.7119 31.4945C16.7119 31.241 16.69 30.9902 16.6472 30.7445C16.6445 30.7291 16.6418 30.7136 16.6389 30.6982L16.6356 30.6808L16.6297 30.6501L16.6256 30.6299L16.6201 30.6027L16.616 30.5835L16.6155 30.5808L16.6066 30.5402L16.6018 30.5192L16.5954 30.4917L16.5911 30.4736L16.583 30.4407L16.5797 30.4273L16.5689 30.3853L16.5677 30.3805L16.5672 30.3786C16.5632 30.3635 16.5591 30.3484 16.5549 30.3333L16.5501 30.3162L16.5426 30.2899L16.536 30.2669L16.5275 30.2383L16.5231 30.2239C16.5186 30.209 16.514 30.1941 16.5093 30.1793L16.5084 30.1764L16.5048 30.1651L16.4946 30.1337L16.4881 30.1142L16.4792 30.0877L16.472 30.0667L16.463 30.0412L16.4564 30.0225L16.4407 29.9795L16.4353 29.9651L16.4238 29.9347L16.4163 29.9153L16.4061 29.8893L16.3993 29.8723L16.3817 29.8289L16.3811 29.8276L16.3802 29.8253C16.3745 29.8116 16.3687 29.7979 16.3629 29.7842L16.3566 29.7696L16.3426 29.7377L16.3365 29.7238L16.3215 29.6904L16.3166 29.6796C16.3099 29.6652 16.3032 29.6507 16.2964 29.6363L16.2911 29.6252L16.2752 29.5921L16.268 29.5774L16.2537 29.5484L16.2462 29.5334C16.24 29.5212 16.2338 29.5091 16.2275 29.4969L16.2244 29.4909L16.2243 29.4908L16.2212 29.4849L16.2023 29.449L16.1944 29.4341L16.1789 29.4055L16.1706 29.3904L16.1533 29.3595L16.1468 29.3479C16.1391 29.3344 16.1314 29.3208 16.1235 29.3074L16.1149 29.2927L16.0995 29.2665L16.0898 29.2504L16.0712 29.2198L16.0648 29.2095C16.0576 29.1977 16.0502 29.1858 16.0428 29.1741L16.0391 29.1683L16.0382 29.1667C16.03 29.1538 16.0217 29.141 16.0134 29.1282L16.0025 29.1115L15.9872 29.0883L15.9759 29.0713L15.9528 29.0373L15.9506 29.0339C15.9413 29.0204 15.9319 29.0069 15.9225 28.9935L15.9206 28.9908L15.9139 28.9814L15.8938 28.9531L15.8825 28.9376L15.864 28.9124L15.8548 28.8999L15.8313 28.8685L15.8259 28.8613L15.8238 28.8586C15.8143 28.8461 15.8047 28.8337 15.795 28.8212L15.7875 28.8117L15.7652 28.7834L15.7548 28.7705L15.7303 28.7402L15.7245 28.733C15.714 28.7203 15.7034 28.7076 15.6928 28.695L15.6918 28.6937L15.6907 28.6924C15.6805 28.6803 15.6702 28.6682 15.6598 28.6562L15.6508 28.6457L15.6273 28.6189L15.6176 28.6078L15.5893 28.5761L15.5845 28.5709C15.5733 28.5586 15.5622 28.5463 15.5509 28.5342L15.5432 28.526L15.5163 28.4973L15.5068 28.4874L15.4815 28.4612L15.4701 28.4494C15.4589 28.4379 15.4476 28.4265 15.4362 28.4151C14.6173 27.5963 13.5151 27.1395 12.3568 27.1395C11.1986 27.1395 10.0963 27.5963 9.27742 28.4151C9.26607 28.4265 9.2548 28.4379 9.24359 28.4494L9.23211 28.4612L9.20689 28.4873L9.19739 28.4973L9.17049 28.5259L9.16279 28.5341C9.1515 28.5463 9.14028 28.5585 9.12916 28.5708L9.12439 28.5761L9.0961 28.6077L9.08633 28.6188L9.06286 28.6457L9.05383 28.6561C9.04348 28.6682 9.03318 28.6802 9.02299 28.6924L9.02186 28.6937L9.02081 28.6949C9.01018 28.7076 8.99966 28.7203 8.98919 28.733L8.98338 28.7401L8.95883 28.7704L8.94847 28.7834L8.92614 28.8117L8.91866 28.8212C8.90897 28.8336 8.89934 28.8461 8.88984 28.8586L8.88777 28.8613L8.8824 28.8684C8.87448 28.8788 8.86665 28.8893 8.85887 28.8998L8.84962 28.9123L8.83113 28.9376L8.81989 28.9531L8.79971 28.9814L8.79301 28.9908L8.79116 28.9935C8.78172 29.0069 8.77236 29.0203 8.76309 29.0339L8.76082 29.0373L8.73776 29.0713L8.72644 29.0883L8.70933 29.1143L8.70147 29.1262C8.69272 29.1397 8.68405 29.1532 8.6755 29.1667L8.67453 29.1682L8.67088 29.1741C8.66346 29.1858 8.6561 29.1976 8.64882 29.2095L8.64248 29.2198L8.62357 29.2509L8.61477 29.2656L8.59785 29.2942L8.59016 29.3073C8.58232 29.3208 8.57454 29.3343 8.56688 29.3479L8.56034 29.3595L8.54307 29.3904L8.53479 29.4054L8.51929 29.4341L8.51132 29.4489L8.48928 29.4908L8.48923 29.4909C8.48186 29.5051 8.47461 29.5193 8.46742 29.5336L8.46072 29.547L8.44496 29.5787L8.43868 29.5916L8.42124 29.628L8.41778 29.6352C8.41078 29.65 8.40388 29.6648 8.39705 29.6797L8.39342 29.6877C8.38758 29.7005 8.38177 29.7134 8.37606 29.7263L8.37186 29.7357L8.3571 29.7696L8.35079 29.7842C8.34492 29.7979 8.33919 29.8116 8.33349 29.8253L8.33255 29.8275L8.33199 29.8289C8.32599 29.8434 8.32004 29.858 8.31419 29.8726L8.30899 29.8857L8.29637 29.9178L8.28981 29.9348L8.27887 29.9637L8.27292 29.9795C8.26733 29.9947 8.26179 30.0098 8.25637 30.0249L8.25518 30.0283C8.25019 30.0422 8.24527 30.0562 8.24045 30.0702L8.23519 30.0856L8.22511 30.1154L8.21985 30.1312L8.20842 30.1666L8.20524 30.1764L8.20432 30.1793C8.19967 30.194 8.19511 30.2087 8.19065 30.2234L8.18691 30.2359L8.1765 30.2709L8.17221 30.2856L8.16272 30.3191L8.15868 30.3336C8.15452 30.3486 8.15045 30.3636 8.1465 30.3786L8.146 30.3805L8.144 30.3882L8.13398 30.4272L8.13055 30.4409L8.1228 30.4726L8.11804 30.4925L8.11062 30.5245L8.10807 30.5356L8.10705 30.5402C8.10403 30.5537 8.10104 30.5672 8.09816 30.5808L8.09769 30.5831L8.09415 30.6001L8.08753 30.6321L8.0841 30.6495L8.07768 30.6828L8.07516 30.6961C8.07217 30.7122 8.06926 30.7283 8.06644 30.7445C8.0237 30.9903 8.0018 31.241 8.0018 31.4945C8.0018 31.748 8.0237 31.9989 8.06647 32.2446H5.61687C4.65641 32.2446 4.89307 31.2663 4.97063 30.6937L5.52829 26.5771C5.79944 24.5752 6.85819 22.7612 8.34541 21.4514C9.80852 20.1573 11.5725 19.2398 13.6611 19.3432C13.7965 19.3499 13.9418 19.3367 14.076 19.3353L14.076 19.3353Z" fill="#C78477"/>
<path d="M37.0741 32.2415L41.1897 32.2416V32.2445C41.6039 32.2445 41.9397 31.9087 41.9397 31.4945H41.9397V13.6505C41.9397 13.2363 41.6039 12.9005 41.1897 12.9005H19.777C19.3628 12.9005 19.027 13.2363 19.027 13.6505V31.4945C19.027 31.9087 19.3628 32.2445 19.777 32.2445C19.7993 32.2445 19.8213 32.2435 19.8431 32.2416L28.4924 32.2415C28.4499 31.9967 28.4282 31.7469 28.4282 31.4944C28.4282 30.3413 28.8818 29.2371 29.7038 28.415C30.5227 27.5962 31.625 27.1394 32.7832 27.1394C33.9415 27.1394 35.0438 27.5962 35.8627 28.4151C36.8482 29.4006 37.3134 30.8614 37.0741 32.2416V32.2415Z" fill="#FFE5DA"/>
<path d="M41.9396 21.6736V18.7036L30.8623 25.2621L41.9396 21.6736Z" fill="#C31918"/>
<path d="M41.9395 17.9066V13.6505C41.9395 13.2363 41.6037 12.9005 41.1895 12.9005H41.0683L21.3438 24.5785L41.9395 17.9066L41.9395 17.9066Z" fill="#C31918"/>
<path d="M17.5563 24.3207V20.8245H13.7665C12.139 20.8245 10.5635 21.4954 9.3361 22.5764C8.76485 23.0794 8.27045 23.6697 7.88257 24.3207H17.5563H17.5563Z" fill="#FFE5DA"/>
<path d="M17.4391 24.2035V20.9417H13.7665C12.9836 20.9417 12.2125 21.1001 11.4878 21.3866C10.7333 21.685 10.0289 22.1223 9.41348 22.6643C9.12994 22.914 8.86654 23.1842 8.62723 23.4714C8.43359 23.7037 8.25454 23.9484 8.09202 24.2035H17.4391L17.4391 24.2035ZM17.6735 20.8245V24.3207C17.6735 24.3854 17.6211 24.4379 17.5563 24.4379H7.88349H7.88258C7.86212 24.4379 7.84142 24.4326 7.82259 24.4214C7.76701 24.3882 7.74879 24.3163 7.7819 24.2607L7.88258 24.3207L7.78232 24.2607C7.97825 23.9319 8.20137 23.6178 8.44779 23.3221C8.69707 23.023 8.96872 22.7439 9.25874 22.4885C9.89432 21.9287 10.622 21.4771 11.4018 21.1687C12.1533 20.8716 12.9535 20.7073 13.7665 20.7073H17.5563C17.6211 20.7073 17.6736 20.7598 17.6736 20.8245H17.6735Z" fill="#C31918"/>
<path d="M37.074 32.2444H41.19H42.3745V30.7444H41.19H37.074C37.1167 30.9901 37.1386 31.2409 37.1386 31.4944C37.1386 31.7479 37.1167 31.9987 37.074 32.2444Z" fill="#C78477"/>
<path d="M4.90529 30.7444C4.49109 30.7444 4.15527 31.0802 4.15527 31.4944C4.15527 31.9086 4.49109 32.2444 4.90529 32.2444H8.06863C8.02586 31.9987 8.00399 31.7479 8.00399 31.4944C8.00399 31.2409 8.02586 30.9901 8.06863 30.7444H4.90529Z" fill="#C78477"/>
<path d="M28.2102 32.2888C28.2314 32.4162 28.3519 32.5022 28.4793 32.481C28.6067 32.4598 28.6928 32.3392 28.6716 32.2119C28.6524 32.0988 28.6377 31.9825 28.6277 31.8635C28.618 31.7479 28.6131 31.6309 28.6131 31.5127C28.6131 29.2092 30.4804 27.3418 32.7839 27.3418C35.0874 27.3418 36.9548 29.2092 36.9548 31.5127C36.9548 31.6309 36.9499 31.748 36.9402 31.8636C36.9301 31.9826 36.9155 32.0989 36.8963 32.212C36.875 32.3394 36.9611 32.4599 37.0885 32.4811C37.2159 32.5024 37.3364 32.4163 37.3577 32.2889C37.3798 32.1583 37.3963 32.0292 37.407 31.9021C37.418 31.7716 37.4236 31.6416 37.4236 31.5127C37.4236 28.9503 35.3463 26.873 32.7839 26.873C30.2215 26.873 28.1443 28.9503 28.1443 31.5127C28.1443 31.6416 28.1498 31.7715 28.1608 31.902C28.1715 32.0291 28.188 32.1582 28.2102 32.2888L28.2102 32.2888Z" fill="#C31918"/>
<path d="M7.82615 32.2888C7.84738 32.4162 7.96791 32.5022 8.0953 32.481C8.22269 32.4598 8.30878 32.3392 8.28755 32.2119C8.26834 32.0988 8.2537 31.9825 8.24368 31.8635C8.23393 31.7479 8.22903 31.6309 8.22903 31.5127C8.22903 29.2092 10.0964 27.3418 12.3999 27.3418C14.7034 27.3418 16.5708 29.2092 16.5708 31.5127C16.5708 31.6309 16.5659 31.748 16.5561 31.8636C16.5461 31.9826 16.5314 32.0989 16.5122 32.212C16.491 32.3394 16.5771 32.4599 16.7045 32.4811C16.8319 32.5024 16.9524 32.4163 16.9736 32.2889C16.9958 32.1583 17.0123 32.0292 17.023 31.9021C17.034 31.7716 17.0395 31.6416 17.0395 31.5127C17.0395 28.9503 14.9623 26.873 12.3999 26.873C9.8375 26.873 7.76025 28.9503 7.76025 31.5127C7.76025 31.6416 7.76579 31.7715 7.77678 31.902C7.78749 32.0291 7.80396 32.1582 7.82614 32.2888L7.82615 32.2888Z" fill="#C31918"/>
</g>
<defs>
<clipPath id="clip0_143_102">
<rect width="48" height="48" fill="white"/>
</clipPath>
</defs>
</svg>
